# xmcd
#
# Track frame offsets: 
#        150
#        11745
#        21932
#        33935
#        45360
#        58992
#        66937
#        78025
#
# Disc length: 1189 seconds
#
# Revision: 1
# Processed by: cddbd v1.4PL0 Copyright (c) Steve Scherf et al.
# Submitted via: ExactAudioCopy v0.90b4
#
DISCID=5d04a308
DTITLE=George Jones - Hank By George (George Jones Sings Hank Williams
DTITLE=)
DYEAR=1900
DGENRE=Country
TTITLE0=Your Cheatin' Heart
TTITLE1=You're Gonna Change (Or I'm Gonna Leave)
TTITLE2=They'll Never Take Her Love From Me
TTITLE3=I Can't Escape From You
TTITLE4=Cold, Cold Heart
TTITLE5=Jambalaya (On The Bayou)
TTITLE6=Mansion On The Hill
TTITLE7=You Win Again
EXTD=
EXTT0=
EXTT1=
EXTT2=
EXTT3=
EXTT4=
EXTT5=
EXTT6=
EXTT7=
PLAYORDER=
